<?xml version="1.0" encoding="utf-8"?>
<!-- Generator: Adobe Illustrator 24.0.0, SVG Export Plug-In . SVG Version: 6.00 Build 0)  -->
<svg version="1.1" id="Layer_1" xmlns="http://www.w3.org/2000/svg" xmlns:xlink="http://www.w3.org/1999/xlink" x="0px" y="0px"
	 viewBox="0 0 300 88" style="enable-background:new 0 0 300 88;" xml:space="preserve">
<style type="text/css">
	.st0{fill:#F53663;}
</style>
<g>
	<path class="st0" d="M5.71,81c-3.56,0-5.34-1.78-5.34-5.34V12.62c0-3.56,1.78-5.34,5.34-5.34c3.45,0,5.18,1.78,5.18,5.34v58.55
		h34.88c3.28,0,4.91,1.6,4.91,4.81c0,3.35-1.64,5.02-4.91,5.02H5.71z"/>
	<path class="st0" d="M124.04,71.17c-7.02,7.44-15.96,11.17-26.82,11.17c-10.86,0-19.8-3.72-26.82-11.17
		c-6.77-7.19-10.15-16.06-10.15-26.6c0-10.54,3.38-19.41,10.15-26.6C77.42,10.52,86.36,6.8,97.22,6.8c10.86,0,19.8,3.72,26.82,11.17
		c6.77,7.19,10.15,16.06,10.15,26.6C134.19,55.11,130.81,63.98,124.04,71.17z M116.83,24.85c-4.91-5.66-11.45-8.49-19.6-8.49
		c-8.16,0-14.69,2.83-19.61,8.49c-4.56,5.27-6.84,11.84-6.84,19.71c0,7.87,2.28,14.44,6.84,19.71c4.91,5.66,11.45,8.49,19.61,8.49
		c8.15,0,14.69-2.83,19.6-8.49c4.59-5.27,6.89-11.84,6.89-19.71C123.72,36.69,121.42,30.12,116.83,24.85z"/>
	<path class="st0" d="M213.31,67.22c0,1.53-0.41,2.69-1.23,3.47c-7.02,7.76-16.79,11.65-29.33,11.65c-10.97,0-19.93-3.6-26.87-10.79
		c-6.8-7.09-10.2-16.08-10.2-26.98c0-11,3.49-20.05,10.47-27.14c6.95-7.09,15.74-10.63,26.39-10.63c4.99,0,9.53,0.73,13.62,2.19
		c4.42,1.6,8.12,3.99,11.11,7.16c1.1,1.07,1.66,2.23,1.66,3.47c0,3.21-1.6,4.81-4.81,4.81c-1.14,0-2.32-0.43-3.53-1.28
		c-5.81-4.38-11.82-6.57-18.06-6.57c-7.76,0-14.12,2.72-19.07,8.17c-4.77,5.27-7.16,11.88-7.16,19.82c0,8.16,2.24,14.87,6.73,20.14
		c4.84,5.7,11.41,8.55,19.71,8.55c8.55,0,15.3-2.19,20.25-6.57V53.22h-17.36c-3.24,0-4.86-1.6-4.86-4.81c0-3.13,1.62-4.7,4.86-4.7
		h22.38c3.53,0,5.29,1.78,5.29,5.34V67.22z"/>
	<path class="st0" d="M289.86,71.17c-7.02,7.44-15.96,11.17-26.82,11.17c-10.86,0-19.8-3.72-26.82-11.17
		c-6.77-7.19-10.15-16.06-10.15-26.6c0-10.54,3.38-19.41,10.15-26.6c7.02-7.44,15.95-11.17,26.82-11.17
		c10.86,0,19.8,3.72,26.82,11.17c6.77,7.19,10.15,16.06,10.15,26.6C300.01,55.11,296.62,63.98,289.86,71.17z M282.65,24.85
		c-4.92-5.66-11.45-8.49-19.61-8.49c-8.16,0-14.69,2.83-19.61,8.49c-4.56,5.27-6.84,11.84-6.84,19.71c0,7.87,2.28,14.44,6.84,19.71
		c4.92,5.66,11.45,8.49,19.61,8.49c8.15,0,14.69-2.83,19.61-8.49c4.59-5.27,6.89-11.84,6.89-19.71
		C289.54,36.69,287.24,30.12,282.65,24.85z"/>
</g>
</svg>
